<svg width="335" height="312" viewBox="0 0 335 312" fill="none" xmlns="http://www.w3.org/2000/svg">
<g clip-path="url(#clip0_8808_30869)">
<circle opacity="0.7" cx="169" cy="142" r="87.5" stroke="#4EAD29"/>
<circle opacity="0.5" cx="169" cy="142" r="103.5" stroke="#4EAD29"/>
<circle opacity="0.3" cx="169" cy="142" r="121.5" stroke="#4EAD29"/>
<circle opacity="0.1" cx="169" cy="142" r="140.5" stroke="#4EAD29"/>
<rect x="163" y="142" width="60" height="60" rx="30" fill="url(#paint0_linear_8808_30869)"/>
<path d="M193 179C193.198 179 193.391 178.941 193.556 178.831C193.72 178.722 193.848 178.565 193.924 178.383C194 178.2 194.019 177.999 193.981 177.805C193.942 177.611 193.847 177.433 193.707 177.293C193.567 177.153 193.389 177.058 193.195 177.019C193.001 176.981 192.8 177 192.617 177.076C192.435 177.152 192.278 177.28 192.169 177.444C192.059 177.609 192 177.802 192 178C192 178.265 192.105 178.52 192.293 178.707C192.48 178.895 192.735 179 193 179ZM198 179C198.198 179 198.391 178.941 198.556 178.831C198.72 178.722 198.848 178.565 198.924 178.383C199 178.2 199.019 177.999 198.981 177.805C198.942 177.611 198.847 177.433 198.707 177.293C198.567 177.153 198.389 177.058 198.195 177.019C198.001 176.981 197.8 177 197.617 177.076C197.435 177.152 197.278 177.28 197.169 177.444C197.059 177.609 197 177.802 197 178C197 178.265 197.105 178.52 197.293 178.707C197.48 178.895 197.735 179 198 179ZM198 175C198.198 175 198.391 174.941 198.556 174.831C198.72 174.722 198.848 174.565 198.924 174.383C199 174.2 199.019 173.999 198.981 173.805C198.942 173.611 198.847 173.433 198.707 173.293C198.567 173.153 198.389 173.058 198.195 173.019C198.001 172.981 197.8 173 197.617 173.076C197.435 173.152 197.278 173.28 197.169 173.444C197.059 173.609 197 173.802 197 174C197 174.265 197.105 174.52 197.293 174.707C197.48 174.895 197.735 175 198 175ZM193 175C193.198 175 193.391 174.941 193.556 174.831C193.72 174.722 193.848 174.565 193.924 174.383C194 174.2 194.019 173.999 193.981 173.805C193.942 173.611 193.847 173.433 193.707 173.293C193.567 173.153 193.389 173.058 193.195 173.019C193.001 172.981 192.8 173 192.617 173.076C192.435 173.152 192.278 173.28 192.169 173.444C192.059 173.609 192 173.802 192 174C192 174.265 192.105 174.52 192.293 174.707C192.48 174.895 192.735 175 193 175ZM200 163H199V162C199 161.735 198.895 161.48 198.707 161.293C198.52 161.105 198.265 161 198 161C197.735 161 197.48 161.105 197.293 161.293C197.105 161.48 197 161.735 197 162V163H189V162C189 161.735 188.895 161.48 188.707 161.293C188.52 161.105 188.265 161 188 161C187.735 161 187.48 161.105 187.293 161.293C187.105 161.48 187 161.735 187 162V163H186C185.204 163 184.441 163.316 183.879 163.879C183.316 164.441 183 165.204 183 166V180C183 180.796 183.316 181.559 183.879 182.121C184.441 182.684 185.204 183 186 183H200C200.796 183 201.559 182.684 202.121 182.121C202.684 181.559 203 180.796 203 180V166C203 165.204 202.684 164.441 202.121 163.879C201.559 163.316 200.796 163 200 163ZM201 180C201 180.265 200.895 180.52 200.707 180.707C200.52 180.895 200.265 181 200 181H186C185.735 181 185.48 180.895 185.293 180.707C185.105 180.52 185 180.265 185 180V171H201V180ZM201 169H185V166C185 165.735 185.105 165.48 185.293 165.293C185.48 165.105 185.735 165 186 165H187V166C187 166.265 187.105 166.52 187.293 166.707C187.48 166.895 187.735 167 188 167C188.265 167 188.52 166.895 188.707 166.707C188.895 166.52 189 166.265 189 166V165H197V166C197 166.265 197.105 166.52 197.293 166.707C197.48 166.895 197.735 167 198 167C198.265 167 198.52 166.895 198.707 166.707C198.895 166.52 199 166.265 199 166V165H200C200.265 165 200.52 165.105 200.707 165.293C200.895 165.48 201 165.735 201 166V169ZM188 175C188.198 175 188.391 174.941 188.556 174.831C188.72 174.722 188.848 174.565 188.924 174.383C189 174.2 189.019 173.999 188.981 173.805C188.942 173.611 188.847 173.433 188.707 173.293C188.567 173.153 188.389 173.058 188.195 173.019C188.001 172.981 187.8 173 187.617 173.076C187.435 173.152 187.278 173.28 187.169 173.444C187.059 173.609 187 173.802 187 174C187 174.265 187.105 174.52 187.293 174.707C187.48 174.895 187.735 175 188 175ZM188 179C188.198 179 188.391 178.941 188.556 178.831C188.72 178.722 188.848 178.565 188.924 178.383C189 178.2 189.019 177.999 188.981 177.805C188.942 177.611 188.847 177.433 188.707 177.293C188.567 177.153 188.389 177.058 188.195 177.019C188.001 176.981 187.8 177 187.617 177.076C187.435 177.152 187.278 177.28 187.169 177.444C187.059 177.609 187 177.802 187 178C187 178.265 187.105 178.52 187.293 178.707C187.48 178.895 187.735 179 188 179Z" fill="#3B3B3B"/>
<path d="M297.606 286.19L297.144 298.213H287.674V286.19H297.606ZM321.485 274.516L314.86 281.284L306.271 272.873L313.219 265.774L321.485 274.516Z" fill="#FFBFB6"/>
<path d="M281.665 295.065C281.928 295.071 282.171 295.211 282.307 295.436C282.711 296.113 282.207 297.568 281.927 298.261C282.362 298.046 282.746 297.853 283.046 297.701C283.277 297.582 283.505 297.466 283.729 297.353L283.782 297.326H283.783C285.017 296.662 286.322 296.14 287.673 295.769C292.086 299.825 297.183 295.792 297.211 295.769C297.249 295.788 299.828 297.093 299.92 299.06C300.012 301.034 299.928 307.878 299.927 307.943V309.232C299.927 309.597 299.782 309.949 299.523 310.207C299.265 310.465 298.914 310.61 298.549 310.61H263.533C263.168 310.61 262.818 310.465 262.56 310.207C262.301 309.949 262.156 309.597 262.156 309.232V307.55H262.231C262.755 305.821 266.024 303.868 269.376 303.057C269.44 303.042 269.509 303.024 269.577 303.008C270.074 302.885 271.449 302.536 273.01 302.05C273.511 301.89 274.05 301.708 274.617 301.507C274.583 301.474 274.563 301.455 274.561 301.453C274.477 301.375 274.472 301.243 274.55 301.159C274.628 301.075 274.76 301.069 274.845 301.147C274.857 301.158 274.933 301.231 275.056 301.35C275.315 301.256 275.581 301.156 275.854 301.052C276.505 300.789 277.21 300.484 277.92 300.165L277.891 300.136C277.806 300.058 277.801 299.926 277.879 299.842C277.957 299.757 278.089 299.753 278.174 299.831C278.184 299.84 278.241 299.893 278.33 299.979C279.228 299.57 280.119 299.144 280.915 298.758C280.222 298.718 278.821 298.555 278.174 297.874C277.926 297.624 277.8 297.278 277.824 296.927C277.803 296.648 277.958 296.385 278.214 296.269C278.842 296.026 280.065 296.968 280.786 297.598C280.65 296.904 280.539 295.867 280.94 295.365C281.116 295.149 281.388 295.036 281.665 295.065ZM319.785 272.759C319.785 272.759 322.551 271.804 324.032 273.124C325.506 274.438 330.338 279.288 330.384 279.334L331.305 280.236C331.848 280.768 331.857 281.64 331.325 282.183L306.83 307.208C306.575 307.469 306.225 307.618 305.86 307.622C305.495 307.626 305.144 307.484 304.883 307.228L303.681 306.052L303.733 305.998C302.865 304.414 303.754 300.711 305.521 297.749C305.554 297.692 305.591 297.63 305.627 297.57C305.887 297.13 306.599 295.903 307.344 294.447C307.58 293.978 307.827 293.465 308.08 292.919C308.032 292.92 308.004 292.922 308.002 292.922C307.928 292.925 307.857 292.889 307.816 292.826C307.776 292.763 307.772 292.683 307.806 292.617C307.84 292.551 307.908 292.508 307.982 292.505C307.999 292.504 308.104 292.499 308.274 292.495C308.388 292.243 308.503 291.984 308.619 291.717C308.887 291.067 309.162 290.35 309.431 289.619L309.391 289.621C309.316 289.625 309.244 289.589 309.203 289.526C309.162 289.463 309.159 289.383 309.193 289.316C309.228 289.25 309.296 289.207 309.37 289.204C309.383 289.203 309.461 289.2 309.585 289.197C309.92 288.269 310.241 287.334 310.521 286.495C310.009 286.962 308.911 287.849 307.972 287.835C307.62 287.836 307.284 287.687 307.051 287.424C306.836 287.243 306.757 286.948 306.854 286.684C307.119 286.065 308.647 285.849 309.603 285.775C309.011 285.387 308.192 284.742 308.114 284.103C308.082 283.827 308.193 283.553 308.407 283.376C308.595 283.191 308.865 283.116 309.121 283.177C309.888 283.361 310.575 284.739 310.874 285.425C311.025 284.962 311.155 284.553 311.257 284.232C311.334 283.983 311.41 283.741 311.486 283.502L311.504 283.443L311.505 283.444C311.893 282.098 312.433 280.799 313.113 279.574C319.092 279.257 319.78 272.809 319.785 272.759ZM281.639 295.481C281.498 295.462 281.358 295.516 281.267 295.625C280.873 296.118 281.192 297.619 281.349 298.155L281.409 298.363L281.425 298.378C281.793 297.55 282.24 296.138 281.948 295.65C281.884 295.542 281.765 295.477 281.639 295.481ZM278.464 296.642C278.431 296.642 278.397 296.646 278.365 296.658C278.292 296.687 278.25 296.786 278.24 296.952C278.223 297.187 278.309 297.419 278.477 297.586C279.032 298.171 280.359 298.309 280.981 298.343C280.087 297.481 278.933 296.643 278.464 296.642ZM310.271 286.157C309.03 286.194 307.624 286.431 307.295 286.766C307.271 286.79 307.251 286.818 307.237 286.848C307.207 286.921 307.248 287.02 307.359 287.142C307.515 287.32 307.742 287.42 307.978 287.418C308.784 287.43 309.812 286.579 310.271 286.157ZM309.023 283.583C308.901 283.553 308.772 283.592 308.687 283.685C308.602 283.751 308.547 283.845 308.531 283.948L308.528 284.052C308.605 284.679 309.901 285.5 310.394 285.763L310.585 285.865L310.606 285.864C310.272 285.021 309.576 283.715 309.023 283.583Z" fill="#4EAD29"/>
<g style="mix-blend-mode:overlay" opacity="0.4">
<path d="M294.019 304.95V307.549H262.156V309.232C262.156 309.597 262.301 309.948 262.56 310.206C262.818 310.464 263.168 310.609 263.533 310.609H298.549C298.914 310.609 299.265 310.464 299.523 310.206C299.781 309.948 299.926 309.597 299.926 309.232V307.549H294.437V304.95C294.438 303.685 295.463 302.661 296.727 302.659H299.963V302.242H296.727C295.233 302.243 294.021 303.455 294.019 304.95Z" fill="#030F1C"/>
<path d="M325.393 278.213C324.821 278.798 324.831 279.735 325.416 280.308C326 280.88 326.938 280.87 327.51 280.285C328.082 279.701 328.072 278.763 327.488 278.191C327.207 277.916 326.829 277.764 326.436 277.768C326.043 277.772 325.668 277.932 325.393 278.213Z" fill="#030F1C"/>
<path d="M331.305 280.236L330.103 279.059L326.263 282.982L324.405 281.163C323.503 280.278 323.487 278.828 324.371 277.924L326.634 275.611L326.336 275.319L324.073 277.632C323.028 278.701 323.046 280.415 324.113 281.462L325.97 283.28L303.681 306.051L304.883 307.229C305.144 307.484 305.496 307.625 305.861 307.622C306.226 307.618 306.575 307.469 306.83 307.208L331.326 282.183C331.581 281.922 331.723 281.571 331.719 281.205C331.715 280.84 331.566 280.491 331.305 280.236Z" fill="#030F1C"/>
<path d="M308.454 297.868C309.82 297.068 313.757 288.778 314.568 286.362C315.379 283.946 311.505 283.444 311.505 283.444C311.505 283.444 311.258 284.249 310.875 285.425C310.953 285.604 311.006 285.738 311.025 285.789C311.033 285.809 311.038 285.829 311.039 285.851C311.955 285.834 312.872 285.881 313.782 285.993C313.896 286.009 313.976 286.114 313.961 286.228C313.946 286.342 313.841 286.422 313.727 286.408C312.741 286.288 311.746 286.244 310.753 286.276C310.704 286.326 310.623 286.403 310.522 286.495C310.242 287.334 309.921 288.269 309.586 289.197C310.559 289.171 311.534 289.217 312.5 289.336C312.615 289.351 312.695 289.456 312.68 289.57C312.665 289.684 312.56 289.765 312.445 289.75C311.446 289.629 310.438 289.586 309.432 289.62C309.159 290.363 308.879 291.092 308.606 291.75C308.504 291.997 308.395 292.246 308.284 292.495C309.229 292.474 310.174 292.521 311.112 292.636C311.226 292.652 311.306 292.756 311.291 292.87C311.275 292.984 311.171 293.065 311.057 293.05C310.073 292.931 309.082 292.887 308.091 292.918C306.951 295.377 305.521 297.749 305.521 297.749C305.521 297.749 307.088 298.668 308.454 297.868Z" fill="#030F1C"/>
<path d="M295.755 305.074C295.755 305.892 296.418 306.555 297.236 306.555C298.054 306.555 298.717 305.892 298.717 305.074C298.717 304.256 298.054 303.593 297.236 303.593C296.843 303.593 296.466 303.749 296.189 304.027C295.911 304.304 295.755 304.681 295.755 305.074H295.755Z" fill="#030F1C"/>
<path d="M271.343 305.236C272.87 305.652 281.548 302.667 283.841 301.556C286.134 300.445 283.783 297.326 283.783 297.326C283.783 297.326 283.034 297.713 281.927 298.262C281.853 298.443 281.794 298.574 281.772 298.623C281.763 298.643 281.751 298.661 281.737 298.676C282.39 299.32 282.998 300.008 283.554 300.737C283.623 300.829 283.604 300.96 283.512 301.029C283.42 301.097 283.289 301.079 283.22 300.987C282.615 300.199 281.951 299.458 281.233 298.77C281.163 298.769 281.052 298.766 280.915 298.758C280.119 299.145 279.227 299.57 278.33 299.979C279.03 300.656 279.678 301.385 280.269 302.159C280.314 302.219 280.324 302.298 280.294 302.366C280.265 302.435 280.201 302.482 280.127 302.491C280.053 302.5 279.98 302.469 279.935 302.409C279.322 301.61 278.648 300.86 277.92 300.165C277.198 300.49 276.481 300.8 275.82 301.065C275.573 301.165 275.319 301.261 275.062 301.356C275.738 302.016 276.366 302.724 276.94 303.475C277.009 303.568 276.99 303.699 276.898 303.768C276.806 303.837 276.675 303.818 276.606 303.726C276.002 302.94 275.34 302.2 274.625 301.514C272.071 302.419 269.376 303.057 269.376 303.057C269.376 303.057 269.816 304.819 271.343 305.236Z" fill="#030F1C"/>
</g>
<path d="M315.523 146.832C316.006 172.956 306.15 221.413 306.15 221.413C306.03 226.386 304.97 237.919 303.71 250.236C310.996 259.81 318.279 269.135 318.316 269.182C313.693 274.937 308.477 276.433 308.431 276.446C308.431 276.446 305.753 274.166 301.553 270.489C300.245 282.385 299.166 291.648 299.157 291.722C294.927 294.398 286.146 291.937 286.146 291.937L285.104 255.75C268.922 240.882 250.261 222.478 250.243 216.656C250.212 206.378 256.579 145.417 256.579 145.417L315.523 146.832ZM272.565 212.47C272.605 212.511 278.798 218.928 284.216 224.965L283.151 188.001L272.565 212.47Z" fill="#121212"/>
<g style="mix-blend-mode:overlay" opacity="0.6">
<path d="M302.756 271.541C302.756 271.541 308.892 269.107 312.642 261.853L313.849 263.378C313.849 263.378 310.923 269.636 304.18 272.729L302.756 271.541Z" fill="white"/>
</g>
<g style="mix-blend-mode:overlay" opacity="0.6">
<path d="M314.979 162.865C314.967 162.864 314.954 162.863 314.942 162.86C302.086 160.252 304.55 145.99 304.577 145.847C304.59 145.773 304.642 145.712 304.712 145.687C304.782 145.662 304.861 145.676 304.918 145.725C304.974 145.773 305.001 145.848 304.987 145.922C304.962 146.061 302.573 159.925 315.025 162.451C315.131 162.473 315.203 162.572 315.191 162.679C315.179 162.787 315.087 162.867 314.979 162.865H314.979Z" fill="#030F1C"/>
</g>
<g style="mix-blend-mode:overlay" opacity="0.6">
<path d="M255.053 158.506C254.956 158.506 254.872 158.439 254.85 158.344C254.828 158.25 254.874 158.153 254.961 158.11C255.053 158.065 264.102 153.505 263.835 144.913C263.834 144.857 263.854 144.803 263.892 144.763C263.93 144.723 263.982 144.699 264.038 144.697H264.044C264.157 144.697 264.249 144.787 264.253 144.9C264.528 153.763 255.239 158.438 255.145 158.484C255.117 158.499 255.085 158.506 255.053 158.506Z" fill="#030F1C"/>
</g>
<g style="mix-blend-mode:overlay" opacity="0.6">
<path d="M256.578 145.417L256.15 148.703C279.134 158.459 315.491 152.943 315.491 152.943L315.521 146.832L256.578 145.417Z" fill="#030F1C"/>
</g>
<g style="mix-blend-mode:overlay" opacity="0.6">
<path d="M283.151 188.001L278.091 167.185C278.091 167.185 274.912 178.316 275.87 190.465C276.828 202.614 275.505 205.673 275.505 205.673L283.151 188.001Z" fill="#030F1C"/>
</g>
<g style="mix-blend-mode:overlay" opacity="0.6">
<path d="M255.123 159.675C255.123 159.675 259.257 160.781 259.552 164.779C259.749 167.445 258.145 183.977 257.124 194.817C255.394 213.197 256.151 217.404 261.33 224.396C263.781 227.705 262.919 234.203 262.919 234.203C262.919 234.203 250.243 221.107 250.243 216.656C250.244 210.303 252.736 180.105 255.123 159.675" fill="white"/>
</g>
<g style="mix-blend-mode:overlay" opacity="0.6">
<path d="M283.439 198.017C283.439 198.017 287.641 200.697 289.178 213.075C290.715 225.454 290.273 256.509 291.046 262.823C291.82 269.139 289.512 277.419 285.453 277.865L283.439 198.017Z" fill="white"/>
</g>
<g style="mix-blend-mode:overlay" opacity="0.6">
<path d="M272.547 216.102C272.538 216.102 272.53 216.101 272.521 216.1C272.466 216.094 272.416 216.065 272.382 216.022C272.348 215.978 272.333 215.923 272.339 215.868C272.348 215.8 273.14 209.051 270.54 204.473C270.483 204.373 270.518 204.245 270.618 204.188C270.718 204.132 270.846 204.166 270.903 204.266C273.572 208.966 272.762 215.849 272.754 215.919C272.741 216.023 272.652 216.102 272.547 216.102Z" fill="#030F1C"/>
</g>
<g style="mix-blend-mode:overlay" opacity="0.6">
<path d="M285.979 284.249C285.979 284.249 292.182 286.816 300.013 284.249L299.808 286.182C299.808 286.182 293.059 288.538 286.003 286.039L285.979 284.249Z" fill="white"/>
</g>
<path d="M300.045 25.694C300.045 19.029 292.685 21.1536 291.433 21.5712C290.18 21.9887 287.258 12.385 287.258 12.385C287.258 12.385 272.227 11.1323 269.305 14.0552C269.305 14.0552 268.47 26.5818 268.887 34.5153C269.305 42.4488 271.854 45.7815 274.776 45.7815C275.701 45.7296 276.609 45.5175 277.461 45.1547V59.7594L295.139 50.5951L292.962 33.3428C293.052 33.2903 293.103 33.2627 293.103 33.2627C293.103 33.2627 300.045 31.9887 300.045 25.694Z" fill="#FFBFB6"/>
<path d="M268.827 24.9143C268.827 24.9143 269.642 18.0576 269.746 16.1593C269.896 13.4285 272.439 12.8555 273.934 14.7708C276.084 17.6149 279.734 18.8865 283.186 17.9944C286.214 17.2889 287.49 16.479 287.767 19.5359C288.045 22.5929 289.086 27.6694 290.058 26.3114C291.03 24.9534 292.118 21.968 294.043 21.6209C296.985 21.0904 298.805 24.6036 298.111 26.6992C297.417 28.7947 296.435 30.1016 292.803 32.0833L293.936 41.0587C302.935 29.1242 306.325 12.7343 294.119 8.93892C289.559 7.52104 284.822 -1.66776 275.998 0.422572C269.746 1.90368 269.746 6.69413 269.302 10.8597C260.902 11.2069 268.827 24.9143 268.827 24.9143Z" fill="#121212"/>
<ellipse cx="278.255" cy="23.6301" rx="0.780966" ry="1.28439" fill="#161B36"/>
<ellipse cx="270.527" cy="24.1638" rx="0.780966" ry="1.28439" fill="#161B36"/>
<path d="M276.64 18.4925C276.918 18.1801 277.3 17.9371 278.445 18.0066C279.59 18.076 281.326 19.1521 280.944 19.4298C280.562 19.7075 279.417 18.7703 278.514 19.0827C277.612 19.3951 277.094 19.6521 276.79 19.4819C276.409 19.2678 276.507 18.6427 276.64 18.4925Z" fill="#161B36"/>
<path d="M271.677 18.1738C271.313 17.9678 270.873 17.8611 269.811 18.2967C268.75 18.7323 267.455 20.3112 267.906 20.4507C268.357 20.5903 269.138 19.3333 270.093 19.3376C271.048 19.3419 271.621 19.4178 271.854 19.1588C272.146 18.8329 271.851 18.2729 271.677 18.1738Z" fill="#161B36"/>
<g style="mix-blend-mode:overlay" opacity="0.6">
<path d="M273.371 32.2934C272.968 32.3082 272.569 32.2155 272.214 32.0247C271.981 31.8945 271.818 31.6667 271.772 31.4039C271.685 30.8595 272.242 30.0171 272.922 29.0529C273.095 28.8227 273.254 28.582 273.397 28.3322C273.535 28.0355 273.496 25.3318 273.378 22.8893L273.795 22.8691C273.836 23.7163 274.027 27.9687 273.775 28.5088C273.623 28.7822 273.452 29.0446 273.263 29.2939C272.835 29.9011 272.117 30.9174 272.184 31.3383C272.212 31.4806 272.303 31.6025 272.432 31.669C273.032 31.9266 273.706 31.9476 274.321 31.7277L274.448 32.1252C274.1 32.2361 273.737 32.2929 273.371 32.2934Z" fill="#030F1C"/>
</g>
<path d="M272.865 36.2664C272.83 36.1432 272.845 36.0109 272.908 35.8989C272.97 35.787 273.075 35.7046 273.198 35.6702C273.813 35.4924 274.945 35.1578 275.807 34.8642C276.707 34.5076 277.581 34.0916 278.425 33.6189C278.572 33.539 278.75 33.5405 278.896 33.623C279.042 33.7054 279.134 33.8571 279.142 34.0244C279.2 35.3096 279.046 37.8195 277.025 38.3311C274.567 38.9534 273.281 37.6237 272.865 36.2664Z" fill="#161B36"/>
<path d="M273.934 37.8687C273.934 37.8687 276.048 34.9147 279.069 35.5895C279.069 35.5895 279.074 37.8966 277.126 38.4165C275.029 38.9763 273.934 37.8687 273.934 37.8687Z" fill="#E55151"/>
<path d="M295.438 24.2696C293.436 23.5925 291.577 27.9497 291.499 28.1357C291.454 28.242 291.504 28.3644 291.61 28.4091C291.717 28.4538 291.839 28.4039 291.884 28.2976C292.207 27.5454 292.603 26.8264 293.065 26.1508C293.487 26.0773 293.922 26.1567 294.29 26.3747C294.656 26.6471 294.89 27.0615 294.933 27.5155C294.95 27.6161 295.037 27.69 295.139 27.6902C295.15 27.6902 295.162 27.6893 295.173 27.6873C295.228 27.6784 295.277 27.648 295.309 27.603C295.341 27.558 295.354 27.502 295.345 27.4474C295.272 26.4366 294.409 25.667 293.397 25.7102C293.991 24.9739 294.67 24.4497 295.303 24.6652C295.374 24.6891 295.452 24.6736 295.508 24.6244C295.564 24.5752 295.59 24.4998 295.575 24.4266C295.561 24.3534 295.508 24.2936 295.438 24.2696H295.438Z" fill="#0B122D"/>
<path d="M277.461 45.3643C277.362 45.3643 277.277 45.2953 277.257 45.1989C277.236 45.1024 277.286 45.0047 277.376 44.9647C277.445 44.9341 284.305 41.8648 287.2 38.155C287.271 38.0645 287.402 38.0486 287.492 38.1194C287.583 38.1902 287.599 38.321 287.529 38.4119C284.569 42.2047 277.831 45.2199 277.545 45.3464C277.519 45.3582 277.49 45.3643 277.461 45.3643Z" fill="#0B122D"/>
<path d="M287.242 15.9161C287.196 15.9161 287.151 15.9006 287.115 15.8722C283.964 13.4254 285.137 8.68246 285.188 8.48184C285.217 8.37061 285.33 8.30375 285.442 8.33226C285.553 8.36076 285.62 8.47392 285.592 8.58539C285.581 8.63188 284.438 13.2647 287.371 15.5423C287.441 15.597 287.469 15.6906 287.44 15.775C287.411 15.8594 287.332 15.9161 287.242 15.916V15.9161Z" fill="white"/>
<g style="mix-blend-mode:overlay" opacity="0.6">
<path d="M277.474 45.2511C277.474 45.2511 283.49 42.452 285.434 40.4155C285.434 40.4155 284.985 45.9061 281.012 49.765C277.039 53.6239 277.474 50.5056 277.474 50.5056L277.474 45.2511Z" fill="#030F1C"/>
</g>
<path d="M295.97 52.4917C295.97 52.4917 307.312 54.8989 310.992 56.1948C311.693 56.4421 315.469 58.4337 316.577 59.3218C322.925 64.4096 325.058 76.1531 334.251 104.598C336.013 110.048 333.561 114.79 327.151 128.788C327.709 129.177 327.931 129.895 327.691 130.532L326.575 133.38C326.283 134.15 324.569 135.246 323.799 134.955L312.577 130.755L307.601 147.628C293.273 149.561 263.991 152.606 256.622 146.45C253.623 143.944 257.362 136.31 257.651 132.238C257.022 132.53 256.324 132.68 255.939 132.474L245.312 126.863C244.586 126.475 243.807 124.808 244.195 124.082L244.935 122.694C244.964 122.638 250.174 112.747 250.079 111.065C249.983 109.374 250.212 75.7923 251.72 70.4106C252.633 67.1534 256.098 63.8008 257.806 62.3013C260.685 59.2604 273.888 53.6163 273.921 53.6021L281.536 58.9331L295.97 52.4917ZM313.494 97.4565C313.064 105.073 312.695 111.51 312.562 113.402C312.316 116.889 312.06 120.064 312.547 124.401C312.648 124.255 312.775 124.129 312.92 124.027L313.354 122.131C315.469 112.835 317.021 104.899 316.459 103.753C315.825 102.466 314.811 100.262 313.494 97.4565Z" fill="#4EAD29"/>
<path d="M231.287 163.111C226.903 163.111 224.783 160.926 224.672 160.808C224.593 160.724 224.597 160.592 224.681 160.513C224.765 160.434 224.897 160.438 224.976 160.522C225.009 160.556 228.375 164.002 235.332 162.119C235.443 162.089 235.558 162.154 235.588 162.266C235.618 162.377 235.552 162.492 235.441 162.522C234.089 162.901 232.692 163.099 231.287 163.111Z" fill="#0B122D"/>
<path d="M256.261 111.966C256.216 111.966 256.173 111.952 256.137 111.925C253.316 109.848 250.198 111.241 250.166 111.255C250.061 111.303 249.937 111.257 249.889 111.152C249.841 111.048 249.887 110.924 249.992 110.876C250.024 110.86 253.36 109.363 256.385 111.589C256.457 111.642 256.487 111.737 256.459 111.822C256.431 111.908 256.351 111.966 256.261 111.966L256.261 111.966Z" fill="#0B122D"/>
<g style="mix-blend-mode:overlay" opacity="0.6">
<path d="M246.164 120.533C246.625 120.06 247.342 119.948 247.925 120.257L249.967 121.347C251.595 118.18 252.122 116.774 253.536 111.757C254.139 109.616 254.008 85.4249 253.695 81.8842C253.52 79.9049 250.919 78.2427 250.919 78.2427C250.919 78.2427 249.825 100.699 250.078 111.065C249.177 114.663 246.917 118.861 246.164 120.533Z" fill="white"/>
</g>
<g style="mix-blend-mode:overlay" opacity="0.6">
<path d="M254.057 131.481C254.048 131.497 255.817 132.389 255.808 132.405L255.938 132.474C256.323 132.68 257.021 132.53 257.65 132.238C257.656 132.161 257.663 132.083 257.666 132.009C257.818 128.14 258.066 124.47 258.297 121.002L258.298 120.985C257.152 122.353 256.126 123.38 255.57 124.337L247.925 120.257C247.215 119.878 252.91 126.138 256.911 126.443C259.501 126.641 254.057 131.481 254.057 131.481Z" fill="#030F1C"/>
</g>
<path d="M262.406 138.882C262.369 138.882 262.333 138.872 262.301 138.854C258.694 136.751 257.512 132.251 257.464 132.06C257.445 131.988 257.467 131.911 257.52 131.859C257.573 131.807 257.65 131.787 257.722 131.808C257.794 131.828 257.85 131.885 257.868 131.957C257.879 132.002 259.058 136.48 262.511 138.493C262.593 138.541 262.632 138.637 262.607 138.728C262.583 138.819 262.5 138.882 262.406 138.882H262.406Z" fill="#0B122D"/>
<g style="mix-blend-mode:overlay" opacity="0.6">
<path d="M255.231 64.8605C255.231 64.8605 259.97 61.3321 264.92 60.1518C268.153 59.3443 271.308 58.2523 274.349 56.8888L272.97 54.0171C272.97 54.0171 262.261 58.7401 259.259 61.1007C257.784 62.2036 256.433 63.4643 255.231 64.8605Z" fill="white"/>
</g>
<g style="mix-blend-mode:overlay" opacity="0.6">
<path d="M286.87 60.1947L302.757 54.017L295.971 52.4917L286.87 60.1947Z" fill="#030F1C"/>
</g>
<g style="mix-blend-mode:overlay" opacity="0.6">
<path d="M312.577 130.755L312.545 130.743C311.775 130.451 310.79 128.897 311.082 128.127L312.372 124.724C312.435 124.56 312.527 124.41 312.642 124.279C311.985 115.811 312.813 103.593 313.355 97.1601C312.859 96.1044 312.322 94.9695 311.747 93.7662C311.229 92.6888 310.686 91.5647 310.115 90.394C309.972 90.1023 309.829 89.8066 309.681 89.5107C308.724 87.5693 307.702 85.52 306.632 83.4119L305.347 81.7144C305.347 81.7144 303.875 94.5443 306.646 107.085C310.169 123.029 304.031 133.629 298.02 139.877C292.917 145.181 282.538 146.449 275.037 150.111C284.296 150.619 298.677 148.915 307.591 147.662L312.577 130.755Z" fill="#030F1C"/>
</g>
<path d="M258.102 119.944L258.094 119.944C257.979 119.939 257.889 119.843 257.893 119.728C258.702 97.5234 257.226 71.3167 257.211 71.0545C257.208 70.9992 257.227 70.9449 257.264 70.9036C257.301 70.8623 257.353 70.8374 257.408 70.8343C257.463 70.8294 257.519 70.8477 257.56 70.8849C257.602 70.9221 257.627 70.9749 257.628 71.0308C257.643 71.293 259.119 97.5193 258.311 119.743C258.306 119.855 258.214 119.944 258.102 119.944Z" fill="#0B122D"/>
<path d="M309.334 87.4251C309.29 87.4251 309.247 87.4111 309.211 87.3849C303.342 83.0972 303.54 74.076 303.542 73.9855C303.541 73.9291 303.563 73.8746 303.604 73.8359C303.645 73.7972 303.701 73.7779 303.757 73.783C303.812 73.7846 303.865 73.8081 303.903 73.8484C303.941 73.8887 303.961 73.9424 303.96 73.9977C303.957 74.0862 303.767 82.8911 309.457 87.0477C309.53 87.101 309.56 87.1952 309.532 87.281C309.504 87.3669 309.424 87.425 309.334 87.4251H309.334Z" fill="#0B122D"/>
<g style="mix-blend-mode:overlay" opacity="0.6">
<path d="M312.855 124.079C313.263 123.759 313.809 123.675 314.295 123.858L316.633 124.745C318.356 118.592 319.638 110.829 320.179 108.438C321.249 103.727 315.959 95.6668 314.236 92.1462C313.196 90.0287 310.681 89.4682 309.682 89.511C311.865 94.0743 315.703 101.884 316.46 103.754C317.331 105.903 314.898 115.325 312.855 124.079Z" fill="white"/>
</g>
<path d="M321.185 108.646C321.081 108.646 320.993 108.569 320.979 108.466C320.959 108.329 320.456 105.095 316.644 104.894C316.53 104.887 316.442 104.789 316.449 104.674C316.455 104.56 316.552 104.472 316.666 104.477C320.829 104.696 321.387 108.371 321.392 108.408C321.4 108.463 321.385 108.519 321.352 108.563C321.319 108.607 321.269 108.636 321.214 108.644C321.205 108.645 321.195 108.646 321.185 108.646Z" fill="#0B122D"/>
<g style="mix-blend-mode:overlay" opacity="0.6">
<path d="M326.826 128.61L314.295 123.858C313.542 123.573 319.989 129.056 323.996 128.849C326.59 128.715 326.432 130.926 325.804 131.954C324.925 133.397 321.807 134.209 321.807 134.209C321.8 134.226 323.668 134.886 323.661 134.902L323.799 134.955C324.569 135.247 326.283 134.151 326.575 133.381L327.691 130.532C327.832 130.163 327.819 129.752 327.657 129.392C327.495 129.031 327.196 128.75 326.826 128.61Z" fill="#030F1C"/>
</g>
<rect width="13.1394" height="24.0171" rx="2.86665" transform="matrix(0.243181 -0.969981 0.969969 0.24323 211.018 167.833)" fill="#4F81DE"/>
<g style="mix-blend-mode:overlay" opacity="0.6">
<path d="M235.405 161.21L215.934 156.328C215.626 156.251 215.301 156.299 215.028 156.462C214.756 156.625 214.56 156.89 214.482 157.198L214.007 159.093L214.095 159.115C214.424 159.197 214.624 159.531 214.541 159.86L213.559 163.78C213.476 164.109 213.142 164.309 212.813 164.226L212.726 164.204L212.251 166.099C212.174 166.407 212.222 166.733 212.385 167.005C212.548 167.278 212.813 167.474 213.121 167.551L232.591 172.434C233.232 172.595 233.882 172.205 234.043 171.564L236.275 162.663C236.436 162.021 236.046 161.371 235.405 161.21Z" fill="white"/>
</g>
<path d="M277.041 49.9927C277.043 50.0349 277.205 52.9537 280.713 54.564L281.536 58.9331L279.235 57.3228L276.885 60.354L273.922 53.6021L277.041 49.9927ZM295.971 52.4917L286.87 60.1948C286.514 59.2104 286.075 58.2581 285.556 57.3491L281.536 58.9331L283.627 54.7661C291.661 49.7899 294.176 45.3951 294.194 45.3638L295.971 52.4917Z" fill="#FFD553"/>
<g style="mix-blend-mode:overlay" opacity="0.6">
<path d="M283.627 54.7666L281.535 58.9328L285.555 57.3489C285.055 56.3899 284.404 55.5179 283.627 54.7666V54.7666Z" fill="#030F1C"/>
</g>
<g style="mix-blend-mode:overlay" opacity="0.6">
<path d="M280.712 54.5635L281.535 58.9328L279.235 57.3223L280.712 54.5635Z" fill="#030F1C"/>
</g>
<path d="M229.068 171.917C229.259 171.328 229.854 170.968 230.465 171.07C230.834 171.132 231.156 171.356 231.343 171.68C231.53 172.005 231.562 172.395 231.43 172.746L230.858 173.927C230.691 174.271 230.321 174.466 229.944 174.41L229.24 174.304C228.974 174.264 228.74 174.103 228.609 173.868C228.477 173.632 228.461 173.349 228.567 173.101L229.068 171.917ZM224.954 170.453C225.232 169.822 225.913 169.47 226.588 169.612C227.053 169.709 227.442 170.028 227.629 170.464C227.816 170.901 227.779 171.402 227.529 171.806L226.831 173.005C226.584 173.429 226.078 173.627 225.61 173.481L224.955 173.277C224.665 173.187 224.428 172.976 224.305 172.699C224.182 172.421 224.185 172.103 224.314 171.828L224.954 170.453ZM221.683 168.553C222.047 167.956 222.788 167.706 223.44 167.962C223.85 168.124 224.164 168.465 224.291 168.887C224.418 169.309 224.346 169.767 224.093 170.128L223.04 171.563C222.71 172.013 222.113 172.176 221.6 171.955L221.236 171.797C220.912 171.657 220.666 171.381 220.565 171.042C220.463 170.704 220.516 170.337 220.709 170.042L221.683 168.553ZM218.822 169.79C218.547 170.045 218.245 170.271 217.922 170.463C216.735 171.042 216.183 169.985 216.341 169.167L218.822 169.79ZM255.939 132.474C256.229 132.589 256.55 132.603 256.849 132.513L243.067 153.36C243.045 153.387 239.85 157.292 239.22 160.281C238.864 161.97 237.698 163.581 236.497 164.965L237.218 162.09C237.295 161.782 237.246 161.456 237.083 161.184C236.92 160.912 236.656 160.715 236.348 160.638L217.694 155.96C217.617 155.518 217.662 155.177 217.82 155.091C218.329 154.817 223.318 155.824 226.184 155.177C227.739 154.849 229.261 154.379 230.73 153.772C231.247 153.505 232.598 151.741 233.595 150.375L245.98 127.215L255.939 132.474ZM322.998 134.655L312.938 160.316L312.657 162.344C311.527 161.961 310.45 161.434 309.453 160.776C307.577 159.355 306.157 157.417 305.366 155.201L305.483 154.811L307.601 147.628L309.758 140.315L312.577 130.755L322.998 134.655ZM281.535 58.9331L281.055 56.3813L283.3 55.4136L281.535 58.9331Z" fill="#FFBFB6"/>
<path d="M78.4559 147.419C78.4559 147.419 83.3587 208.995 83.0867 219.086C82.8148 229.178 81.9988 291.369 81.9988 291.369C81.9988 291.369 75.471 294.915 68.6712 291.369C68.6712 291.369 64.5915 252.909 62.6873 241.453C60.7835 229.997 61.3274 214.449 61.3274 214.449L51.5354 190.174L34.625 292.159C34.625 292.159 25.968 294.369 21.8884 291.642C21.8884 291.642 22.7039 272.276 21.8884 253.182C21.072 234.089 22.7039 220.177 25.1521 212.813C25.1521 212.813 19.7162 174.626 20.804 148.986L78.4559 147.419Z" fill="#201F20"/>
<path d="M20.9602 164.741C20.9722 164.741 20.9843 164.74 20.9961 164.738C33.6467 162.48 31.5691 148.418 31.5465 148.276C31.5285 148.165 31.4239 148.089 31.3127 148.107C31.2015 148.124 31.1255 148.229 31.1428 148.34C31.1645 148.478 33.1776 162.148 20.9247 164.334C20.8204 164.353 20.7475 164.448 20.7567 164.554C20.7659 164.66 20.8543 164.741 20.9602 164.741V164.741Z" fill="white"/>
<path d="M79.7485 161.875C79.8427 161.875 79.9247 161.81 79.9472 161.718C79.9697 161.627 79.9268 161.532 79.8434 161.488C79.7549 161.441 71.0005 156.75 71.4636 148.32C71.4666 148.266 71.448 148.212 71.4118 148.172C71.3756 148.131 71.3249 148.107 71.2707 148.104C71.2164 148.1 71.163 148.119 71.1224 148.155C71.0819 148.192 71.0578 148.243 71.0555 148.297C70.5776 156.994 79.5632 161.804 79.6541 161.851C79.6833 161.867 79.7156 161.875 79.7485 161.875Z" fill="white"/>
<path d="M61.2643 218.016C61.2711 218.016 61.2778 218.016 61.2845 218.015C61.3385 218.01 61.3881 217.983 61.4225 217.941C61.457 217.899 61.4733 217.845 61.468 217.791C61.4614 217.724 60.8448 211.079 63.4983 206.645C63.5563 206.548 63.5248 206.422 63.428 206.364C63.3311 206.305 63.2056 206.337 63.1476 206.434C60.4236 210.985 61.0543 217.764 61.061 217.831C61.0713 217.936 61.1592 218.016 61.2643 218.016Z" fill="white"/>
<g style="mix-blend-mode:overlay" opacity="0.6">
<path d="M78.4562 147.419L78.8164 152.258C56.0806 161.295 20.6901 154.987 20.6901 154.987L20.8044 148.986L78.4562 147.419Z" fill="#030F1C"/>
</g>
<g style="mix-blend-mode:overlay" opacity="0.6">
<path d="M51.536 190.174L56.9799 169.853C56.9799 169.853 59.8318 180.858 58.6078 192.765C57.3837 204.672 58.6078 207.707 58.6078 207.707L51.536 190.174Z" fill="#030F1C"/>
</g>
<g style="mix-blend-mode:overlay" opacity="0.6">
<path d="M79.6484 163.021C79.6484 163.021 74.0809 163.476 73.919 168.442C73.7909 172.376 74.8295 187.353 75.9174 197.992C77.0053 208.629 76.7948 228.632 77.0016 237.088C77.2085 245.543 82.6517 244.459 82.6517 244.459C82.6517 244.459 83.3578 220.397 82.9548 214.169C82.5519 207.942 81.5051 183.138 79.6484 163.021" fill="white"/>
</g>
<g style="mix-blend-mode:overlay" opacity="0.6">
<path d="M49.9492 200.001C49.9492 200.001 42.4901 199.787 40.8266 209.613C38.7819 221.692 34.4796 256.818 33.5734 263C32.6668 269.183 33.1393 276.683 37.1031 277.217L49.9492 200.001Z" fill="white"/>
</g>
<path d="M69.3604 292.159L67.9531 307.62H107.125C106.989 306.659 106.451 303.967 104.541 303.292L95.4971 302.55L81.1924 292.159H69.3604ZM11.416 307.62H37.5205L35.2373 292.029L22.0049 290.622L11.416 307.62Z" fill="#429323"/>
<path d="M21.8809 299.865C21.4334 299.865 21.0696 300.228 21.0693 300.675C21.0693 301.123 21.4333 301.487 21.8809 301.487H29.6123C30.06 301.487 30.4229 301.123 30.4229 300.675C30.4226 300.228 30.0599 299.865 29.6123 299.865H21.8809ZM84.0859 299.479C83.6406 299.479 83.2793 299.841 83.2793 300.288C83.2794 300.734 83.6407 301.096 84.0859 301.096H93.4941L91.2686 299.479H84.0859ZM22.6006 297.212C22.1532 297.213 21.7901 297.576 21.79 298.023C21.79 298.47 22.1532 298.833 22.6006 298.833H30.333C30.7807 298.833 31.1436 298.471 31.1436 298.023C31.1435 297.575 30.7807 297.212 30.333 297.212H22.6006ZM80.4141 296.833C79.969 296.833 79.6074 297.196 79.6074 297.642C79.6075 298.088 79.969 298.45 80.4141 298.45H89.8223L87.5967 296.833H80.4141ZM23.3779 294.433C22.9306 294.434 22.5674 294.796 22.5674 295.244C22.5674 295.691 22.9306 296.054 23.3779 296.054H31.1104C31.558 296.054 31.9209 295.691 31.9209 295.244C31.9208 294.796 31.558 294.433 31.1104 294.433H23.3779ZM77.1152 294.433C76.6703 294.433 76.3096 294.795 76.3096 295.242C76.3098 295.688 76.6704 296.049 77.1152 296.049H86.5244L84.2988 294.433H77.1152Z" fill="white"/>
<path d="M16.8799 302.142C15.431 302.142 14.0412 302.719 13.0166 303.746C11.9921 304.774 11.4161 306.167 11.416 307.62V310.634H37.5195V307.62C37.5194 304.594 35.0739 302.142 32.0566 302.142H16.8799ZM67.9531 307.62C67.9531 307.62 67.7464 310.625 68.7275 310.626H104.65C105.793 310.683 106.799 309.879 106.997 308.749L107.125 307.62H74.8887C74.8953 307.585 76.0932 301.096 68.5469 301.096L67.9531 307.62ZM68.541 289.178C68.0218 289.178 67.6006 289.6 67.6006 290.121V291.216C67.6006 291.737 68.0223 292.16 68.542 292.16H81.5283C82.0472 292.16 82.4676 291.738 82.4678 291.218V290.12C82.4678 289.6 82.0471 289.178 81.5283 289.178H68.541ZM22.376 289.127C21.5505 289.127 20.8818 289.797 20.8818 290.622C20.8819 291.448 21.5506 292.117 22.376 292.117H34.2939C35.1195 292.117 35.789 291.448 35.7891 290.622C35.7891 289.796 35.1196 289.127 34.2939 289.127H22.376Z" fill="#4EAD29"/>
<path d="M37.2943 32.7526C37.2943 26.2063 44.5033 28.2931 45.7302 28.7032C46.9571 29.1133 49.8198 19.6805 49.8198 19.6805C49.8198 19.6805 64.5425 18.4502 67.4052 21.321C67.4052 21.321 68.2232 33.6246 67.8142 41.4169C67.4052 49.2092 64.9085 52.4825 62.0458 52.4825C61.1404 52.4315 60.2508 52.2232 59.4165 51.8669V66.2116L42.0995 57.2104L44.2322 40.2653C44.1446 40.2137 44.0943 40.1865 44.0943 40.1865C44.0943 40.1865 37.2943 38.9353 37.2943 32.7526Z" fill="#FFBFB6"/>
<path d="M67.9292 30.3887C67.9292 30.3887 71.4953 27.0627 71.9043 20.0907C72.3132 13.1186 70.8407 5.74905 66.4888 6.02181C62.1369 6.29457 56.6063 6.55264 52.2544 6.01447C47.9025 5.47629 38.02 7.84023 37.2947 15.4776C34.9715 19.026 33.8874 23.2468 34.2121 27.4792C34.7561 34.571 37.1113 43.9277 44.4572 46.0271L44.7972 40.4127C44.7972 40.4127 37.2947 34.0369 39.6534 31.0266C42.6805 27.1632 46.9052 30.6614 47.3585 33.2982C47.3585 33.2982 48.7082 31.9308 48.8998 26.9337C48.8998 26.9337 52.5264 24.297 52.6171 20.6601C52.6171 20.6601 64.2222 19.4781 66.6701 21.4784L67.9292 30.3887Z" fill="#161B36"/>
<g style="mix-blend-mode:overlay" opacity="0.6">
<path d="M59.4032 51.8461C59.4032 51.8461 53.51 49.0969 51.606 47.0967C51.606 47.0967 52.0458 52.4895 55.9378 56.2797C59.8297 60.0699 59.4032 57.0071 59.4032 57.0071L59.4032 51.8461Z" fill="#030F1C"/>
</g>
<ellipse cx="0.764982" cy="1.26153" rx="0.764982" ry="1.26153" transform="matrix(-1 0 0 1 59.4043 29.4639)" fill="#161B36"/>
<ellipse cx="0.764983" cy="1.26153" rx="0.764983" ry="1.26153" transform="matrix(-1 0 0 1 66.9736 29.9883)" fill="#161B36"/>
<path d="M60.2198 25.6795C59.9478 25.3726 59.5738 25.134 58.4519 25.2021C57.3299 25.2703 55.6299 26.3273 56.0039 26.6001C56.3779 26.8728 57.4999 25.9522 58.3839 26.2591C59.2679 26.566 59.7754 26.8183 60.0725 26.6513C60.4465 26.4409 60.3506 25.827 60.2198 25.6795Z" fill="#161B36"/>
<path d="M65.0822 25.3664C65.4384 25.1641 65.8692 25.0593 66.9092 25.4871C67.9491 25.915 69.2177 27.4657 68.7759 27.6028C68.3341 27.7399 67.5687 26.5053 66.6332 26.5095C65.6978 26.5137 65.1362 26.5882 64.9088 26.3339C64.6225 26.0137 64.911 25.4637 65.0822 25.3664Z" fill="#161B36"/>
<g style="mix-blend-mode:overlay" opacity="0.6">
<path d="M63.4227 39.2348C63.8172 39.2493 64.2085 39.1582 64.5562 38.9708C64.7845 38.843 64.9435 38.619 64.9893 38.3609C65.0742 37.8264 64.5292 36.9991 63.8625 36.0523C63.6928 35.8261 63.5374 35.5895 63.3972 35.3438C63.2616 35.0525 63.3003 32.3969 63.4162 29.9981L63.0076 29.978C62.9675 30.8101 62.7798 34.9868 63.0266 35.5173C63.1755 35.786 63.3432 36.0438 63.5284 36.2888C63.9483 36.8852 64.651 37.8832 64.5855 38.2964C64.5581 38.4363 64.4685 38.556 64.3421 38.6214C63.755 38.8745 63.094 38.895 62.4924 38.6789L62.3674 39.0693C62.7086 39.1784 63.0646 39.2342 63.4227 39.2348Z" fill="#030F1C"/>
</g>
<path d="M63.9182 43.1367C63.9529 43.0156 63.9379 42.8857 63.8767 42.7758C63.8154 42.6658 63.7129 42.5849 63.5919 42.5511C62.9903 42.3764 61.8812 42.0478 61.0363 41.7594C60.1556 41.4092 59.299 41.0006 58.4723 40.5364C58.3282 40.4578 58.154 40.4593 58.0112 40.5403C57.8685 40.6213 57.7774 40.7703 57.7703 40.9346C57.713 42.1969 57.8644 44.6621 59.8438 45.1646C62.2511 45.7758 63.5113 44.4698 63.9182 43.1367Z" fill="#161B36"/>
<path d="M62.8721 44.7106C62.8721 44.7106 60.8007 41.8092 57.8418 42.472C57.8418 42.472 57.8372 44.738 59.7448 45.2487C61.7986 45.7985 62.8721 44.7106 62.8721 44.7106Z" fill="#E55151"/>
<path d="M41.8074 31.3538C43.7654 30.6863 45.5889 34.9682 45.6656 35.1508C45.7094 35.2552 45.6605 35.3754 45.5564 35.4193C45.4523 35.4632 45.3324 35.4142 45.2886 35.3098C44.9713 34.5707 44.583 33.8643 44.1291 33.2007C43.7162 33.1287 43.2913 33.2069 42.9309 33.4212C42.5727 33.6888 42.3441 34.0958 42.3014 34.5416C42.2851 34.6405 42.1999 34.7131 42.0999 34.7132C42.0887 34.7133 42.0775 34.7123 42.0664 34.7104C42.0129 34.7016 41.9651 34.6718 41.9336 34.6276C41.902 34.5833 41.8892 34.5284 41.8981 34.4747C41.969 33.4828 42.8132 32.727 43.8041 32.7684C43.2213 32.0455 42.5572 31.5307 41.9388 31.7423C41.8696 31.7658 41.7931 31.7505 41.7382 31.7022C41.6833 31.6539 41.6582 31.5798 41.6725 31.508C41.6868 31.4361 41.7382 31.3773 41.8074 31.3538H41.8074Z" fill="#0B122D"/>
<path d="M59.4165 52.0727C59.5131 52.0728 59.5966 52.005 59.6166 51.9102C59.6367 51.8155 59.5879 51.7195 59.4996 51.6802C59.4321 51.6502 52.7127 48.6358 49.8767 44.992C49.8073 44.9027 49.6788 44.8868 49.5898 44.9565C49.5008 45.0262 49.485 45.155 49.5544 45.2443C52.4539 48.9696 59.0542 51.9309 59.3338 52.0551C59.3598 52.0667 59.388 52.0727 59.4165 52.0727Z" fill="#0B122D"/>
<path d="M50.7581 18.0469C50.7939 18.0468 50.829 18.0374 50.86 18.0196C54.2465 16.0655 53.7493 11.2929 53.7265 11.0906C53.7215 11.0361 53.6945 10.986 53.6518 10.9519C53.6091 10.9178 53.5544 10.9027 53.5003 10.91C53.3881 10.9227 53.3074 11.0242 53.32 11.1367C53.3253 11.1836 53.8084 15.8453 50.6559 17.664C50.5755 17.7103 50.5363 17.805 50.5603 17.8948C50.5843 17.9846 50.6654 18.047 50.7581 18.0469L50.7581 18.0469Z" fill="white"/>
<path d="M44.2472 23.5931C44.2998 23.5931 44.3504 23.5727 44.3884 23.5362C47.8526 20.2178 46.4821 14.8428 46.468 14.7889C46.4391 14.6794 46.3271 14.6141 46.2179 14.6431C46.1088 14.6721 46.0437 14.7843 46.0726 14.8938C46.0862 14.9455 47.3935 20.0906 44.106 23.2398C44.0457 23.2977 44.0265 23.3865 44.0576 23.4643C44.0886 23.542 44.1637 23.593 44.2472 23.5931H44.2472Z" fill="white"/>
<rect width="12.8706" height="23.5893" rx="2.86665" transform="matrix(-0.979955 -0.199219 -0.198141 0.980173 145.771 65.728)" fill="#4F81DE"/>
<g style="mix-blend-mode:overlay" opacity="0.6">
<path d="M129.62 84.5403L133.527 65.2154C133.655 64.579 134.274 64.1676 134.909 64.2966L136.784 64.6779L136.766 64.7646C136.734 64.9215 136.766 65.0845 136.854 65.2179C136.943 65.3513 137.08 65.4441 137.236 65.4759L141.116 66.2645C141.272 66.2963 141.435 66.2645 141.568 66.1761C141.701 66.0877 141.793 65.9499 141.825 65.7931L141.842 65.7062L143.718 66.0875C144.352 66.2165 144.762 66.8369 144.634 67.4732L140.727 86.7983C140.665 87.1039 140.485 87.3723 140.226 87.5446C139.967 87.7169 139.65 87.7788 139.345 87.7169L130.536 85.9262C130.232 85.8642 129.964 85.6834 129.792 85.4235C129.62 85.1636 129.558 84.8459 129.62 84.5403Z" fill="white"/>
</g>
<path d="M40.7578 58.2754C40.7578 58.2754 31.0256 60.3372 26.7891 61.6484C16.1163 64.6473 15.1711 71.0881 1.64648 105.279C-1.74571 113.855 3.9435 122.274 15.5938 121.115C18.2405 120.852 20.8494 120.565 23.5508 120.216C23.753 124.597 23.7117 128.964 21.7197 136.559C20.5898 141.142 19.981 145.84 19.9043 150.561C19.9043 150.561 67.8593 158.652 77.6582 150.561C80.6967 148.051 76.9758 140.312 76.8896 136.375C76.756 130.197 76.3649 124.53 76.1963 119.403C77.4459 121.376 78.7939 123.284 80.2344 125.121C84.4712 130.526 87.6721 132.469 93.5293 129.354C100.584 125.603 110.385 116.212 131.6 94.998C127.826 93.7706 125.955 90.4633 125.602 86.4131L108.317 97.4619L92.6104 107.195C92.2505 107.419 91.8006 107.441 91.4209 107.253C91.0412 107.065 90.7851 106.693 90.7441 106.271C90.2246 100.9 89.396 95.5629 88.2617 90.2881C85.8411 79.2582 82.3479 69.3511 73.4209 64.8584C68.7088 62.2151 62.3861 59.3873 62.3389 59.3662L54.2695 61.3672L40.7578 58.2754ZM22.8643 103.877L21.7432 103.93C22.1128 103.173 22.4184 102.549 22.7852 101.813C22.812 102.512 22.8382 103.2 22.8643 103.877Z" fill="#4EAD29"/>
<path d="M37.2236 89.2954H50.6875V87.0806H37.2236V89.2954ZM40.7598 58.2739L51.6396 66.73C51.6463 66.6892 52.196 63.3537 54.2686 61.3657L58.9834 66.73L62.3379 59.3657L59.3457 55.8198C59.3369 55.8417 57.7486 59.7769 54.2686 61.3657C49.0433 59.9816 44.7469 56.258 42.624 51.2739L40.7598 58.2739Z" fill="#FFD553"/>
<path d="M72.13 143.128C72.1659 143.128 72.2012 143.118 72.2322 143.1C75.7999 141.036 77.0364 136.617 77.0875 136.43C77.1067 136.359 77.0869 136.284 77.0355 136.232C76.9841 136.18 76.9089 136.159 76.8382 136.178C76.7676 136.196 76.7122 136.251 76.6929 136.322C76.6809 136.366 75.4472 140.767 72.0278 142.745C71.9477 142.792 71.9087 142.886 71.9327 142.976C71.9566 143.065 72.0375 143.128 72.13 143.128Z" fill="#0B122D"/>
<path d="M77.5867 94.0085C77.6878 94.0084 77.7735 93.9341 77.7884 93.8339C79.1515 84.7536 78.5049 78.1856 78.4981 78.1204C78.4851 78.0086 78.3858 77.9275 78.274 77.9373C78.2201 77.9428 78.1706 77.9696 78.1363 78.0117C78.1021 78.0539 78.086 78.1079 78.0915 78.162C78.0979 78.2269 78.7389 84.7476 77.3842 93.773C77.3762 93.8268 77.3897 93.8815 77.4219 93.9252C77.4541 93.969 77.5024 93.998 77.556 94.0061C77.5661 94.0077 77.5764 94.0085 77.5867 94.0085Z" fill="#0B122D"/>
<g style="mix-blend-mode:overlay" opacity="0.6">
<path d="M55.472 80.5504C55.4722 80.9018 55.7565 81.1865 56.1069 81.1864C56.4573 81.1862 56.7413 80.9012 56.7412 80.5498C56.7411 80.1984 56.457 79.9136 56.1066 79.9136C55.9382 79.9136 55.7768 79.9807 55.6577 80.1002C55.5387 80.2196 55.4719 80.3816 55.472 80.5504Z" fill="#030F1C"/>
</g>
<g style="mix-blend-mode:overlay" opacity="0.6">
<path d="M55.0263 93.1663C55.026 93.4238 55.1805 93.6561 55.4177 93.7548C55.6549 93.8536 55.928 93.7993 56.1097 93.6173C56.2914 93.4353 56.3458 93.1615 56.2477 92.9235C56.1495 92.6856 55.918 92.5303 55.6613 92.5303C55.3109 92.5303 55.0267 92.8149 55.0263 93.1663Z" fill="#030F1C"/>
</g>
<g style="mix-blend-mode:overlay" opacity="0.6">
<path d="M53.7493 119.975C53.7491 120.233 53.9036 120.465 54.1407 120.564C54.3778 120.662 54.6508 120.608 54.8324 120.426C55.014 120.244 55.0685 119.97 54.9704 119.733C54.8723 119.495 54.641 119.34 54.3843 119.339C54.0339 119.339 53.7498 119.624 53.7493 119.975Z" fill="#030F1C"/>
</g>
<g style="mix-blend-mode:overlay" opacity="0.6">
<path d="M54.3837 138.203C54.3834 138.46 54.538 138.693 54.7752 138.792C55.0124 138.89 55.2856 138.836 55.4672 138.654C55.6489 138.472 55.7033 138.198 55.605 137.96C55.5067 137.722 55.2751 137.567 55.0183 137.567C54.668 137.567 54.384 137.852 54.3837 138.203Z" fill="#030F1C"/>
</g>
<g style="mix-blend-mode:overlay" opacity="0.6">
<path d="M58.9834 66.7306L50.6876 62.5027L54.2693 61.3662L58.9834 66.7306Z" fill="#030F1C"/>
</g>
<path d="M56.467 102.285C57.0623 92.5754 57.7062 79.0982 57.5228 75.7892C57.2672 71.189 54.1073 61.7426 54.0753 61.6481C54.0511 61.5785 54.066 61.5012 54.1144 61.4457C54.1628 61.3901 54.2371 61.3649 54.3092 61.3796C54.3812 61.3943 54.4399 61.4467 54.4627 61.5167C54.4947 61.6125 57.6726 71.1109 57.9309 75.7668C58.1146 79.0793 57.4725 92.543 56.8772 102.266L56.467 102.285Z" fill="#0B122D"/>
<path d="M56.1 113.749C56.0199 117.858 56.3013 125.515 56.5751 132.967C56.9001 141.802 57.236 150.939 56.9656 154.123C56.9567 154.229 56.8684 154.31 56.7624 154.31C56.7564 154.31 56.7504 154.31 56.7448 154.31C56.6323 154.3 56.5488 154.201 56.5583 154.088C56.8263 150.929 56.4908 141.805 56.1665 132.982C55.8949 125.598 55.6161 118.01 55.6894 113.851C55.826 113.817 55.9625 113.783 56.1 113.749Z" fill="#0B122D"/>
<g style="mix-blend-mode:overlay" opacity="0.6">
<path d="M22.7943 101.175C23.4647 99.8433 24.3915 98.0367 26.1235 94.694C26.2707 94.4111 26.418 94.1241 26.5693 93.837C26.7165 93.554 26.8679 93.2668 27.0191 92.9799C28.5255 90.1025 30.177 87.0059 31.9101 83.8442C32.5186 90.383 32.321 96.9721 31.3218 103.462L22.8474 103.863C22.8248 102.896 22.8074 101.994 22.7943 101.175Z" fill="#030F1C"/>
</g>
<g style="mix-blend-mode:overlay" opacity="0.6">
<path d="M23.5424 120.177C24.9352 119.995 26.3556 119.795 27.8187 119.573C26.9153 130.876 32.4635 139.048 37.2236 144.104C42.1295 149.314 52.2746 150.56 59.5576 154.156C45.6105 154.924 19.9069 150.56 19.9069 150.56C19.9069 150.56 19.3447 143.789 22.3627 133.923C23.4167 130.477 23.6956 125.834 23.5424 120.177Z" fill="#030F1C"/>
</g>
<g style="mix-blend-mode:overlay" opacity="0.6">
<path d="M51.6396 66.7307L34.0857 59.773L40.7596 58.2744L51.6396 66.7307Z" fill="#030F1C"/>
</g>
<g style="mix-blend-mode:overlay" opacity="0.6">
<path d="M76.1207 114.281C76.1453 111.431 76.5133 106.616 76.9755 101.141C77.1526 99.0383 77.3431 96.8377 77.5325 94.6138C78.0528 95.6065 78.4868 96.6425 78.8297 97.71C81.4694 105.966 78.7325 110.901 78.8543 115.274C78.9492 118.683 86.1137 123.672 82.7567 128.308C81.0199 126.465 79.9245 125.122 79.9245 125.122C78.5737 123.398 77.3425 121.658 76.2144 119.911C76.1453 117.957 76.1047 116.078 76.1207 114.281Z" fill="#030F1C"/>
</g>
<g style="mix-blend-mode:overlay" opacity="0.6">
<path d="M93.5617 111.474C94.4238 111.05 103.863 105.924 107.536 102.553C109.576 100.681 109.268 98.3682 108.326 97.4618L92.6179 107.196C92.2581 107.42 91.8083 107.442 91.4286 107.253C91.0489 107.065 90.7931 106.693 90.7522 106.271C90.2327 100.9 89.4037 95.5634 88.2694 90.2886C86.9096 90.8613 85.4137 92.2251 85.8217 96.0438C86.2688 100.229 86.3203 108.246 87.9523 110.909C88.3683 111.588 90.3676 113.046 93.5617 111.474Z" fill="white"/>
</g>
<path d="M90.8586 114.907C90.9301 114.908 90.9966 114.87 91.0337 114.809C91.0709 114.748 91.0734 114.671 91.0403 114.608C89.45 111.531 90.7788 108.359 90.7923 108.327C90.8221 108.26 90.8135 108.182 90.7698 108.122C90.7261 108.063 90.6541 108.032 90.5811 108.041C90.5081 108.049 90.4454 108.097 90.4169 108.165C90.3582 108.301 88.9955 111.543 90.6769 114.797C90.7122 114.865 90.7822 114.907 90.8586 114.907Z" fill="#0B122D"/>
<g style="mix-blend-mode:overlay" opacity="0.60001">
<path d="M80.2031 70.3285C80.2031 70.3285 75.6239 66.8633 70.7962 65.7035C67.647 64.912 64.5747 63.8398 61.6161 62.4994L63.0171 59.6782C63.0171 59.6782 73.4249 64.3169 76.324 66.6358C77.7494 67.7188 79.0505 68.9573 80.2031 70.3285" fill="white"/>
</g>
<path d="M26.9611 91.5257C27.0027 91.5257 27.0434 91.513 27.0777 91.4893C32.9254 87.4173 32.9438 78.5545 32.9434 78.4656C32.9426 78.3528 32.8513 78.2618 32.7389 78.2617H32.7377C32.6248 78.2626 32.534 78.3548 32.5344 78.468C32.5348 78.5549 32.5136 87.2051 26.8445 91.1521C26.7709 91.2032 26.739 91.2963 26.7657 91.3819C26.7925 91.4675 26.8716 91.5258 26.9611 91.5257Z" fill="#0B122D"/>
<path d="M39.7113 103.271L39.7209 103.27L61.3297 102.245C61.3838 102.243 61.4348 102.219 61.4713 102.179C61.5078 102.138 61.5268 102.085 61.5242 102.031C61.5228 101.976 61.4992 101.925 61.4589 101.888C61.4185 101.851 61.3649 101.832 61.3105 101.836L39.7017 102.861C39.5909 102.866 39.5046 102.959 39.5072 103.07C39.5098 103.182 39.6004 103.27 39.7113 103.271V103.271Z" fill="#0B122D"/>
<path d="M38.9665 117.797C38.9824 117.797 38.9983 117.795 39.0137 117.791L62.9372 112.132C63.0467 112.106 63.1142 111.996 63.0882 111.886C63.0622 111.776 62.9526 111.708 62.843 111.733L38.9194 117.393C38.8185 117.417 38.7515 117.513 38.7635 117.616C38.7756 117.719 38.8628 117.797 38.9665 117.797Z" fill="#0B122D"/>
<path d="M16.5637 108.055C16.6636 108.054 16.7486 107.982 16.765 107.883C16.7873 107.748 17.356 104.585 21.0934 104.478C21.2063 104.474 21.2951 104.38 21.2919 104.266C21.2821 104.156 21.1917 104.071 21.0814 104.067C17.0006 104.185 16.3676 107.78 16.3616 107.817C16.3528 107.87 16.3656 107.925 16.3972 107.969C16.4288 108.013 16.4766 108.043 16.5301 108.052C16.5412 108.054 16.5524 108.055 16.5637 108.055Z" fill="#0B122D"/>
<g style="mix-blend-mode:overlay" opacity="0.6">
<path d="M30.5502 106.795C35.2081 106.216 36.2666 104.715 36.2666 103.229L21.4335 103.93C22.5091 101.728 27.358 92.334 27.5093 92.047C26.1097 91.5975 24.3256 92.8394 22.8323 95.2024C21.087 97.9642 16.2025 104.681 18.2012 106.602C19.3513 107.707 27.9114 107.123 30.5502 106.795Z" fill="white"/>
</g>
<path d="M76.5603 91.2312C74.189 93.546 71.4463 95.4442 68.447 96.8465C63.4907 99.1611 62.0307 102.738 62.0193 102.766L61.0056 103.137C59.7178 105.987 60.6524 109.253 62.3171 111.124L65.2146 110.612C65.2146 110.612 76.3361 111.119 78.3406 110.005C80.3374 108.894 79.1026 107.825 79.0945 107.818C79.112 107.812 82.3158 106.761 80.9402 104.956C80.9487 104.954 83.7883 104.324 82.8474 101.984C82.8917 101.981 92.4149 101.203 91.9587 99.4627C91.5019 97.7227 72.808 99.1277 72.7166 99.1346C72.7617 99.0886 78.693 93.0515 76.5603 91.2312ZM130.69 73.7859C130.009 71.7924 127.096 71.5401 126.896 72.0711C126.698 72.6038 128.337 77.3255 128.089 80.2C127.976 81.7569 127.721 83.3003 127.327 84.8103C127.2 85.1705 126.473 85.9826 125.648 86.825C126.059 90.4105 127.699 93.362 130.85 94.7137C132.011 93.7307 133.448 92.6831 134.768 92.2097C136.536 91.576 138.077 89.9826 139.337 88.491L129.633 86.5183C129.328 86.4564 129.06 86.2761 128.888 86.0164C128.717 85.7565 128.655 85.4382 128.717 85.1326L130.872 74.4695C130.826 74.238 130.765 74.0097 130.69 73.7859ZM141.785 83.366C141.349 83.2758 140.899 83.4297 140.608 83.7674C140.318 84.1051 140.233 84.5742 140.385 84.993C140.538 85.4117 140.905 85.715 141.344 85.7849L142.627 85.8709C143 85.8961 143.346 85.6749 143.481 85.325L143.732 84.6746C143.827 84.4275 143.803 84.1496 143.667 83.9226C143.53 83.6959 143.297 83.5454 143.035 83.5144L141.785 83.366ZM142.532 79.1424C141.86 79.0727 141.232 79.4842 141.025 80.1287C140.883 80.573 140.965 81.0591 141.246 81.4314C141.527 81.8036 141.97 82.0153 142.435 81.9988L143.795 81.9861C144.275 81.9816 144.689 81.645 144.792 81.1746L144.936 80.5164C145 80.2252 144.935 79.9203 144.759 79.6805C144.582 79.4406 144.31 79.2889 144.013 79.2644L142.532 79.1424ZM144.241 75.3201L142.503 75.4275C141.988 75.4428 141.523 75.7378 141.289 76.1971C141.054 76.6563 141.087 77.2073 141.376 77.6346C141.664 78.0619 142.162 78.2975 142.675 78.2498L144.406 78.0496C144.949 77.9864 145.377 77.5548 145.437 77.0096L145.48 76.6238C145.518 76.2786 145.402 75.9338 145.163 75.6824C144.924 75.4311 144.586 75.2987 144.241 75.3201Z" fill="#FFBFB6"/>
<path d="M78.625 101.873C78.625 101.818 78.6465 101.766 78.6848 101.728C78.7232 101.689 78.7752 101.667 78.8295 101.667H82.3863C82.4993 101.667 82.5908 101.759 82.5908 101.873C82.5908 101.986 82.4993 102.078 82.3863 102.078H78.8295C78.7752 102.078 78.7232 102.056 78.6848 102.018C78.6465 101.979 78.625 101.927 78.625 101.873Z" fill="#030F1C"/>
<path d="M75.6233 104.924C75.6233 104.87 75.6448 104.818 75.6831 104.779C75.7215 104.741 75.7735 104.719 75.8278 104.719H80.4957C80.6086 104.719 80.7002 104.811 80.7002 104.924C80.7002 105.038 80.6086 105.129 80.4957 105.129H75.8278C75.7735 105.129 75.7215 105.108 75.6831 105.069C75.6448 105.031 75.6233 104.979 75.6233 104.924Z" fill="#030F1C"/>
<path d="M75.4176 107.565H78.5543C78.6672 107.565 78.7588 107.657 78.7588 107.77C78.7588 107.883 78.6672 107.975 78.5543 107.975H75.4176C75.3047 107.975 75.2131 107.883 75.2131 107.77C75.2131 107.657 75.3047 107.565 75.4176 107.565Z" fill="#030F1C"/>
<rect x="152" y="79" width="60" height="60" rx="30" fill="url(#paint1_linear_8808_30869)"/>
<path d="M182 108H182.01M178 108H178.01M186 108H186.01M182.29 114.998C188.097 114.934 191 112.919 191 108C191 103 188 101 182 101C176 101 173 103 173 108C173 111.077 174.136 113.018 176.409 114.056L175 118L182.29 114.998Z" stroke="#3B3B3B" stroke-width="2" stroke-linecap="round" stroke-linejoin="round"/>
<rect x="102" y="121" width="60" height="60" rx="30" fill="url(#paint2_linear_8808_30869)"/>
<path fill-rule="evenodd" clip-rule="evenodd" d="M122 151C122 145.477 126.477 141 132 141C137.523 141 142 145.477 142 151C142 153.955 140.718 156.611 138.681 158.441C138.671 158.45 138.662 158.459 138.652 158.467C136.884 160.043 134.554 161 132 161C129.446 161 127.116 160.043 125.348 158.467C125.338 158.459 125.329 158.45 125.319 158.441C123.282 156.611 122 153.955 122 151ZM127.146 157.359C128.492 158.389 130.174 159 132 159C133.826 159 135.508 158.389 136.854 157.359C136.603 156.709 136.186 156.201 135.593 155.822C134.813 155.322 133.65 155 132 155C130.35 155 129.187 155.322 128.407 155.822C127.814 156.201 127.397 156.709 127.146 157.359ZM138.349 155.868C137.947 155.181 137.388 154.596 136.671 154.137C135.464 153.365 133.886 153 132 153C130.114 153 128.536 153.365 127.329 154.137C126.612 154.596 126.054 155.181 125.651 155.868C124.616 154.519 124 152.832 124 151C124 146.582 127.582 143 132 143C136.418 143 140 146.582 140 151C140 152.832 139.384 154.519 138.349 155.868ZM129.73 145.942C130.32 145.232 131.157 145 132 145C132.843 145 133.68 145.232 134.27 145.942C134.823 146.609 135 147.517 135 148.5C135 149.483 134.823 150.391 134.27 151.058C133.68 151.768 132.843 152 132 152C131.157 152 130.32 151.768 129.73 151.058C129.177 150.391 129 149.483 129 148.5C129 147.517 129.177 146.609 129.73 145.942ZM131.27 147.219C131.156 147.355 131 147.697 131 148.5C131 149.303 131.156 149.645 131.27 149.781C131.347 149.874 131.509 150 132 150C132.491 150 132.653 149.874 132.73 149.781C132.844 149.645 133 149.303 133 148.5C133 147.697 132.844 147.355 132.73 147.219C132.653 147.126 132.491 147 132 147C131.509 147 131.347 147.126 131.27 147.219Z" fill="#3B3B3B"/>
</g>
<defs>
<linearGradient id="paint0_linear_8808_30869" x1="163" y1="172" x2="223" y2="172" gradientUnits="userSpaceOnUse">
<stop stop-color="#C0F3AC"/>
<stop offset="1" stop-color="#D8FCCA"/>
</linearGradient>
<linearGradient id="paint1_linear_8808_30869" x1="152" y1="109" x2="212" y2="109" gradientUnits="userSpaceOnUse">
<stop stop-color="#FFC3C3"/>
<stop offset="1" stop-color="#FFDCDC"/>
</linearGradient>
<linearGradient id="paint2_linear_8808_30869" x1="102" y1="151" x2="162" y2="151" gradientUnits="userSpaceOnUse">
<stop stop-color="#FFFB92"/>
<stop offset="1" stop-color="#FFEEB4"/>
</linearGradient>
<clipPath id="clip0_8808_30869">
<rect width="335" height="312" fill="white"/>
</clipPath>
</defs>
</svg>
