<svg width="105" height="80" viewBox="0 0 105 80" fill="none" xmlns="http://www.w3.org/2000/svg">
<path d="M49.587 15.2979H65.6717L72.273 42.5706H72.8308L88.3577 15.2979H104.442L96.5395 63.4483H83.8949L88.4507 35.6113H88.0788L73.0168 63.0721H65.3928L59.3494 35.4232H58.9775L54.3288 63.4483H43.6364L33.4091 46.8967L34.7727 30.345L22.5 15.2979H49.587Z" fill="#4EAD29"/>
<path d="M22.7126 50.6206H15.1777V63.4482H1.36377V15.1724H23.6894C28.108 15.1724 31.9452 15.908 35.201 17.3793C38.4568 18.8045 40.9684 20.8735 42.7359 23.5862C44.5033 26.2528 45.387 29.4022 45.387 33.0344C45.387 36.5287 44.5498 39.5862 42.8754 42.2068C41.2475 44.7816 38.8987 46.8045 35.8289 48.2758L46.3638 63.4482H31.5731L22.7126 50.6206ZM31.4335 33.0344C31.4335 30.7816 30.7126 29.0344 29.2707 27.7931C27.8289 26.5517 25.6894 25.931 22.8521 25.931H15.1777V40.0689H22.8521C25.6894 40.0689 27.8289 39.4712 29.2707 38.2758C30.7126 37.0344 31.4335 35.2873 31.4335 33.0344Z" fill="#121212"/>
</svg>
